Coordinates
version=1
nRows=6
nColumns=36
inDegrees=yes

Units are S.I. units (second, meters, Newtons, ...)
If the header above contains a line with 'inDegrees', this indicates whether rotational values are in degrees (yes) or radians (no).

endheader
time	pelvis_tilt	pelvis_list	pelvis_rotation	pelvis_tx	pelvis_ty	pelvis_tz	hip_flexion_r	hip_adduction_r	hip_rotation_r	knee_angle_r	knee_angle_r_beta	ankle_angle_r	subtalar_angle_r	mtp_angle_r	hip_flexion_l	hip_adduction_l	hip_rotation_l	knee_angle_l	knee_angle_l_beta	ankle_angle_l	subtalar_angle_l	mtp_angle_l	lumbar_extension	lumbar_bending	lumbar_rotation	arm_flex_r	arm_add_r	arm_rot_r	elbow_flex_r	pro_sup_r	arm_flex_l	arm_add_l	arm_rot_l	elbow_flex_l	pro_sup_l
      0.00000000	      2.58731896	     -1.88033500	     -1.83619729	     -1.04325042	      1.29991496	     -0.04248308	     -0.53816139	      2.86115377	     -2.78220739	      9.73022495	      0.16982446	      0.97370624	    -23.68536638	     -5.91750172	     -0.18777097	     -3.54418946	      0.71839953	     10.86471038	      0.18962497	      7.67956758	    -11.82749839	     -5.91750172	    -12.94891217	      2.54370843	     -2.12414828	      9.17026453	     -4.05981198	     19.43370542	     23.54069168	     78.62900696	     11.59851927	     -3.51520620	     30.80100024	     27.65796298	     66.21075308
      0.00416670	     -0.15458912	     -0.96826082	     -1.59965479	     -1.03880245	      1.29909020	     -0.04611404	      3.27150187	      1.92325015	     -2.85152892	     11.45473703	      0.19992288	      5.00170545	    -21.92709053	     -6.12718754	      4.17081490	     -2.20886682	      0.13671295	     12.54290446	      0.21891498	      8.17793104	    -10.32615769	     -6.12718754	     -9.40024894	      2.10707593	     -2.89229124	      8.05967107	     -3.35172092	     16.74075537	     22.81502224	     80.07340634	     11.04187362	     -2.67759978	     26.09927556	     26.33454407	     66.61540926
      0.00833330	     -0.81045240	      0.06941348	     -1.64535530	     -1.03495245	      1.29659460	     -0.04795399	      3.24303109	      0.66079094	     -3.94658735	     10.29300629	      0.17964685	      5.21490248	    -20.93467500	     -6.27661297	      4.66475127	     -1.16222381	     -1.00373301	     12.34880540	      0.21552731	      8.13688479	     -9.82072988	     -6.27661297	     -7.99091425	      0.97378788	     -2.95220850	      7.77931327	     -2.95523189	     17.37039567	     22.22267560	     80.76714352	     11.52947180	     -3.67910245	     28.26268338	     26.26294346	     67.51650726
      0.01250000	     -0.22964984	      0.48545520	     -1.55545263	     -1.03215852	      1.30234260	     -0.04921417	      1.61959228	      0.13931765	     -4.39154695	      8.90920661	      0.15549499	      5.40989674	    -20.00609488	     -6.31985840	      3.16221364	     -0.56002503	     -1.24239174	     11.23074463	      0.19601347	      7.39895147	    -10.35332839	     -6.31985840	     -8.47090857	      0.56430541	     -2.84291669	      7.52975192	     -2.84191708	     17.65350684	     22.28140654	     81.04959082	     11.98446758	     -4.43115431	     29.48644988	     26.43932378	     67.88845129
      0.01666670	      0.28516459	      0.66361977	     -1.45647237	     -1.02714640	      1.30174774	     -0.05221215	      0.14095241	     -0.07261442	     -4.49070020	      7.73111129	      0.13493335	      5.21568227	    -19.87142940	     -6.40906600	      1.79299955	     -0.13479722	     -1.21365966	     10.19779086	      0.17798503	      7.04601281	    -10.67050308	     -6.40906600	     -8.80988885	      0.55583592	     -2.83738294	      7.41731358	     -2.79352637	     18.17427497	     22.23694711	     79.92967950	     12.26732744	     -4.75821183	     30.46828280	     26.26320700	     67.46610145
      0.02083330	      0.80456836	      0.74846721	     -1.37705064	     -1.02827558	      1.30484138	     -0.05588776	     -1.11967458	     -0.20739683	     -4.57230493	      6.79466687	      0.11858931	      5.46061759	    -19.22280309	     -6.44599481	      0.61014251	      0.26702466	     -1.04920409	      9.19337924	      0.16045474	      6.64912299	    -11.41009017	     -6.44599481	     -9.41800751	      0.59522226	     -2.70195304	      7.44351295	     -3.09192607	     19.24784877	     22.63109358	     80.29820128	     12.94047940	     -4.90275996	     32.14599813	     25.87704028	     67.73372437
